<?xml version="1.0" encoding="UTF-8"?>
<svg width="260px" height="260px" viewBox="0 0 260 260" version="1.1" xmlns="http://www.w3.org/2000/svg" xmlns:xlink="http://www.w3.org/1999/xlink">
    <!-- Generator: Sketch 49.2 (51160) - http://www.bohemiancoding.com/sketch -->
    <title>clc</title>
    <desc>Created with Sketch.</desc>
    <defs></defs>
    <g id="Page-1" stroke="none" stroke-width="1" fill="none" fill-rule="evenodd">
        <g id="clc" fill-rule="nonzero">
            <rect id="Rectangle-path" fill="#1B1C1C" x="0.845211303" y="0.685326974" width="258.212053" height="259.216769"></rect>
            <g id="Group" transform="translate(30.000000, 26.000000)" fill="#FFFFFF">
                <path d="M198.779445,97.4260073 L198.779445,99.5472574 C198.356839,111.002008 195.3986,137.72976 165.393598,137.72976 C134.965991,137.72976 131.162541,111.850508 131.162541,84.6985063 L131.162541,52.0312539 C131.162541,20.6367516 141.305076,0.697000126 166.23881,0.697000126 C194.975994,0.697000126 197.934234,24.0307519 198.356839,37.6067529 L198.356839,40.152253 L180.607402,40.152253 L180.607402,36.7582528 C180.607402,29.5460023 179.339585,16.3942513 166.23881,16.3942513 C152.715429,16.3942513 149.757189,32.0915024 149.757189,51.6070039 L149.757189,85.1227564 C149.757189,104.638258 152.292823,122.032509 165.816204,122.032509 C178.494374,122.032509 180.607402,108.880758 180.607402,100.395757 L180.607402,97.4260073 L198.779445,97.4260073 Z" id="Shape"></path>
                <polygon id="Shape" points="87.3663416 17.5152504 105.115779 17.5152504 105.115779 191.882013 145.263316 191.882013 143.150288 207.579264 87.3663416 207.579264"></polygon>
                <path d="M68.1525381,157.063512 L68.1525381,159.184762 C67.7299325,170.639513 64.7716929,197.367265 34.7666917,197.367265 C4.33908477,197.367265 0.535633908,171.488013 0.535633908,144.336011 L0.535633908,111.668759 C0.535633908,80.2742563 10.6781695,60.3345048 35.611903,60.3345048 C64.3490873,60.3345048 67.3073268,83.6682566 67.7299325,97.2442576 L67.7299325,99.7897578 L49.9804951,99.7897578 L49.9804951,96.3957575 C49.9804951,89.183507 48.7126782,76.031756 35.611903,76.031756 C22.0885221,76.031756 19.1302826,91.7290072 19.1302826,111.244509 L19.1302826,144.760261 C19.1302826,164.275763 21.6659165,181.670014 35.1892973,181.670014 C47.8674669,181.670014 49.9804951,168.518263 49.9804951,160.033262 L49.9804951,157.063512 L68.1525381,157.063512 Z" id="Shape"></path>
            </g>
        </g>
    </g>
</svg>